<svg width="162" height="43" viewBox="0 0 162 43" fill="none" xmlns="http://www.w3.org/2000/svg">
<g id="Group">
<g id="Group_2">
<g id="Group_3">
<path id="Vector" d="M155.9 6.05007L161.76 6.15007L157.15 9.61007L158.78 15.1801L154.07 11.9101L149.27 15.1801L151 9.61007L146.28 6.15007L152.15 6.05007L154.07 0.570068L155.9 6.05007Z" fill="#D1232A"/>
<g id="Group_4">
<g id="Group_5">
<g id="Group_6">
<path id="Vector_2" d="M0.240051 32.1101V22.6901H1.59004V31.9201C1.59004 35.0901 2.55005 36.5401 4.96005 36.5401C6.69005 36.5401 8.04004 35.5801 9.67004 33.5601V22.5901H11V37.3001H9.85005L9.66005 34.9001H9.56004C8.12004 36.6301 6.58004 37.6901 4.56004 37.6901C1.68004 37.6801 0.240051 35.8601 0.240051 32.1101Z" fill="#D1232A"/>
</g>
<g id="Group_7">
<g id="Group_8">
<path id="Vector_3" d="M16.1 17.8801C16.1 17.1101 16.68 16.6301 17.35 16.6301C18.02 16.6301 18.6 17.1101 18.6 17.8801C18.6 18.5501 18.02 19.0301 17.35 19.0301C16.68 19.0301 16.1 18.5501 16.1 17.8801ZM16.68 22.5901H18.03V37.3001H16.68V22.5901Z" fill="#D1232A"/>
</g>
</g>
<g id="Group_9">
<path id="Vector_4" d="M24.85 14.3201H23.79V42.8801H24.85V14.3201Z" fill="#D1232A"/>
</g>
<g id="Group_10">
<g id="Group_11">
<path id="Vector_5" d="M30.14 17.3901H37.35C41.58 17.3901 45.04 18.8301 45.04 23.6401C45.04 26.6201 43.6 28.4501 41.48 29.4101L46 37.3901H40.9L37.05 30.1801H34.55V37.3901H30.03V17.3901H30.14ZM36.96 26.5301C39.36 26.5301 40.61 25.4701 40.61 23.5501C40.61 21.6301 39.36 20.9501 36.96 20.9501H34.65V26.5301H36.96Z" fill="#D1232A"/>
</g>
</g>
<g id="Group_12">
<g id="Group_13">
<path id="Vector_6" d="M47.35 29.7C47.35 24.8 50.91 21.72 54.56 21.72C58.89 21.72 61 24.89 61 29.03C61 29.8 60.9 30.66 60.81 31.05H51.68C52.06 33.26 53.6 34.22 55.62 34.22C56.77 34.22 57.83 33.84 58.89 33.16L60.43 35.85C58.89 36.91 56.87 37.58 55.05 37.58C50.71 37.68 47.35 34.8 47.35 29.7ZM57.16 28.07C57.16 26.34 56.39 25.19 54.66 25.19C53.22 25.19 52.06 26.15 51.68 28.07H57.16Z" fill="#D1232A"/>
</g>
</g>
<g id="Group_14">
<g id="Group_15">
<path id="Vector_7" d="M64.08 22.1101H67.7301L68.0201 23.6501H68.1201C69.2701 22.5901 70.8101 21.8201 72.4501 21.8201C76.1001 21.8201 78.4101 24.9001 78.4101 29.5101C78.4101 34.7001 75.2401 37.6801 71.9701 37.6801C70.6201 37.6801 69.4701 37.1001 68.3201 36.0501L68.5101 38.4501V42.8701H63.9901V22.1101H64.08ZM73.8801 29.5101C73.8801 26.8201 73.0101 25.3801 71.2801 25.3801C70.3201 25.3801 69.5501 25.7601 68.6801 26.7301V32.9801C69.4501 33.7501 70.31 33.9401 71.08 33.9401C72.64 34.0301 73.8801 32.6801 73.8801 29.5101Z" fill="#D1232A"/>
</g>
</g>
<g id="Group_16">
<path id="Vector_8" d="M81.48 31.5301V22.1101H86V30.9601C86 33.1701 86.58 33.8401 87.92 33.8401C89.07 33.8401 89.75 33.3601 90.61 32.1101V22.1101H95.13V37.3001H91.48L91.1 35.1801H91C89.75 36.7201 88.31 37.6801 86.19 37.6801C82.92 37.6801 81.48 35.3701 81.48 31.5301Z" fill="#D1232A"/>
</g>
<g id="Group_17">
<g id="Group_18">
<path id="Vector_9" d="M103.11 35.6601H103.01L102.63 37.2901H99.0701V15.8601H103.59V21.1501L103.49 23.4601C104.64 22.4001 106.09 21.7301 107.53 21.7301C111.18 21.7301 113.49 24.8101 113.49 29.4201C113.49 34.6101 110.32 37.6901 107.05 37.6901C105.71 37.6801 104.27 37.0101 103.11 35.6601ZM108.79 29.5101C108.79 26.8201 107.92 25.3801 106.19 25.3801C105.23 25.3801 104.46 25.7601 103.59 26.7301V32.9801C104.36 33.7501 105.22 33.9401 105.99 33.9401C107.54 34.0301 108.79 32.6801 108.79 29.5101Z" fill="#D1232A"/>
</g>
</g>
<g id="Group_19">
<path id="Vector_10" d="M116.67 32.5901V15.8601H121.19V32.7801C121.19 33.7401 121.57 34.0301 121.96 34.0301C122.15 34.0301 122.25 34.0301 122.54 33.9301L123.12 37.3001C122.64 37.4901 121.87 37.6801 120.81 37.6801C117.63 37.6801 116.67 35.6601 116.67 32.5901Z" fill="#D1232A"/>
</g>
<g id="Group_20">
<g id="Group_21">
<path id="Vector_11" d="M125.04 17.4902C125.04 16.1402 126.1 15.1802 127.64 15.1802C129.18 15.1802 130.24 16.1402 130.24 17.4902C130.24 18.8402 129.18 19.8902 127.64 19.8902C126.1 19.8902 125.04 18.9302 125.04 17.4902ZM125.42 22.1102H129.94V37.3002H125.42V22.1102Z" fill="#D1232A"/>
</g>
</g>
<g id="Group_22">
<path id="Vector_12" d="M132.92 29.7C132.92 24.6 136.67 21.72 140.8 21.72C142.63 21.72 144.07 22.39 145.22 23.35L143.1 26.23C142.33 25.65 141.75 25.36 141.08 25.36C138.87 25.36 137.52 27.09 137.52 29.69C137.52 32.29 138.96 34.02 140.89 34.02C141.85 34.02 142.81 33.54 143.58 32.96L145.31 35.94C143.77 37.29 141.94 37.77 140.31 37.77C136.29 37.68 132.92 34.8 132.92 29.7Z" fill="#D1232A"/>
</g>
</g>
</g>
</g>
</g>
</g>
</svg>
